PathFileType	4	(X/Y/Z)	20_1_31_p1_0-431_filt_butterworth.trc
DataRate	CameraRate	NumFrames	NumMarkers	Units	OrigDataRate	OrigDataStartFrame	OrigNumFrames
58.0	58.0	7	27	m	58.0	269	431
Frame#	Time	RHip			RKnee			RAnkle			RBigToe			RSmallToe			RHeel			LHip			LKnee			LAnkle			LBigToe			LSmallToe			LHeel			Neck			Head			Nose			RShoulder			RElbow			RWrist			RThumb			RIndex			RPinky			LShoulder			LElbow			LWrist			LThumb			LIndex			LPinky			
		X1	Y1	Z1	X2	Y2	Z2	X3	Y3	Z3	X4	Y4	Z4	X5	Y5	Z5	X6	Y6	Z6	X7	Y7	Z7	X8	Y8	Z8	X9	Y9	Z9	X10	Y10	Z10	X11	Y11	Z11	X12	Y12	Z12	X13	Y13	Z13	X14	Y14	Z14	X15	Y15	Z15	X16	Y16	Z16	X17	Y17	Z17	X18	Y18	Z18	X19	Y19	Z19	X20	Y20	Z20	X21	Y21	Z21	X22	Y22	Z22	X23	Y23	Z23	X24	Y24	Z24	X25	Y25	Z25	X26	Y26	Z26	X27	Y27	Z27	
269	4.637931034482759	0.3239790550683428	0.5416158339167438	0.9777635568670643	0.32094836758970785	0.645016753863211	1.3236690605988826	0.3463314150211789	0.8137015285718969	1.7437653548976266	0.31894261833539106	0.6503062630479194	1.8161601939432959	0.39356267752380447	0.6622775981768523	1.8061183223455115	0.32365654455250115	0.9216496261133782	1.8116721212782363	0.14246248301430317	0.5895781358844887	0.9533117930483892	0.13577545852698866	0.7026090515266273	1.3273261369280225	0.12617324880665745	0.8246743885540592	1.7046541102906325	0.11727500425931489	0.6903484842960175	1.8164810957084352	0.06302751954196968	0.7041900378620836	1.7930284085693993	0.13434312411200852	0.8827949119770097	1.7583182082359308	0.29443598011948036	0.42478157125078586	0.45048165372172067	0.3729792972978775	0.364803715469194	0.24475323288978793	0.31751668795196725	0.2993288081801046	0.35562330301182377	0.4288332044455438	0.4642304257990881	0.5452351955631842	0.41018464146564126	0.4846449891127341	0.813986397617788	0.36400960813148175	0.43398101929496447	1.066387457609415	0.2980923639093201	0.4333785585763639	1.1706600902725086	0.32435079714012094	0.45227047727982583	1.2033417542920046	0.3567598011819564	0.4615470714871003	1.1876226831960135	0.14005193158932838	0.4938966744163166	0.4845562604946999	0.036221739844258506	0.5256104898337954	0.7357743145456493	0.14620658473726703	0.3853965704087789	0.6390119759293684	0.2212634603613866	0.3605852865621315	0.5728527251658949	0.23789092918386132	0.3583161308026769	0.5775957531291462	0.24424954965773146	0.3706009330632337	0.6367763351173634
270	4.655172413793103	0.3227847587472262	0.5382521578503389	0.9773813657408346	0.32107073067258557	0.6452310133440012	1.3236896407418148	0.34609212585005833	0.8139327782401611	1.7437247373468936	0.31900271492010923	0.6505425141642918	1.8165423376071468	0.3937899152060531	0.6595400008518123	1.805458826849367	0.32362796707334107	0.9216605864504995	1.8116687999408518	0.14246202412435566	0.5896764416259319	0.9523453366095798	0.1357851622898739	0.7026295205258645	1.3273441696650714	0.1258637154968701	0.8249355355555932	1.7053475948250518	0.11612056658039488	0.6893363373949275	1.8143204316138493	0.06424516600146195	0.7015507484640318	1.7926196815216053	0.13509500495455343	0.8870615449389566	1.758663262952686	0.29452122450326385	0.42448350053621636	0.45007010630656513	0.37613730250062566	0.36183337727220927	0.24493466490809984	0.31910466596599363	0.29969979002864083	0.3557461098789531	0.42875279299465346	0.4640859535870761	0.5451682186406863	0.41016630366459184	0.4846110269194676	0.8143715644124624	0.36407580467465805	0.43448354042162984	1.0676948229169352	0.2981189016259864	0.434486440761526	1.1726829504160055	0.32435617608098055	0.45169145853320003	1.2049135093535661	0.3568893384531787	0.4618007212002726	1.1884671077177766	0.1427113228295675	0.49320773633186804	0.48349299114448363	0.03628830180899368	0.5255473048200084	0.7355541890524124	0.14901209307280938	0.3898482330846167	0.638084544774481	0.22419517020470756	0.3661902737056314	0.5728766887125194	0.24092963154470198	0.36233560831027023	0.5779386207545192	0.2441237581185474	0.37042526990245145	0.6367656099652097
271	4.672413793103448	0.3223366355705539	0.5370216912365154	0.9772768064481433	0.32120517026718937	0.6455988397550068	1.3238015464408408	0.34575382968083634	0.8144848256743709	1.743699853025289	0.31906237409582017	0.6507699830724003	1.8169693008721879	0.39341422108258123	0.6620118626060356	1.8059846057079914	0.32347577672432626	0.9214663363932917	1.811711659621245	0.14246013207267164	0.5897170950149709	0.9520037641706639	0.13583407899337122	0.7025936133514815	1.3273665276030264	0.12544102607042668	0.8250965795201455	1.7073555663519608	0.11434156121683559	0.6885411633130206	1.8129376883366108	0.06419739837277037	0.7034020019511802	1.7936487636752783	0.13543460353252482	0.8885588626457337	1.7596715001391525	0.294908983605967	0.42523656920442676	0.44932078480010534	0.3798624467117736	0.3580198806292776	0.24542182227625128	0.32108771479285886	0.3002567660103467	0.35564155217192506	0.42917645525317694	0.4651930529765137	0.5450228491820094	0.41015429133511744	0.4846791785478727	0.8153561759038626	0.3641267643277161	0.4344383682542865	1.0687910372156593	0.29869954205606547	0.43581016359756897	1.1752267781486678	0.32437493299195036	0.45101962693746916	1.2065343545051652	0.3568953242846609	0.4618101074615077	1.1893239402521125	0.14511608355409594	0.49325177744692417	0.4829549537782891	0.036290519431867445	0.5255375334270727	0.7356539068150943	0.15109641558640596	0.3932755770994863	0.6377834403874677	0.22775641973162983	0.37273198116841594	0.5729100001324441	0.2436964543164705	0.3673506281595586	0.5787143401386508	0.2440152558768599	0.3703340601648738	0.6367585113057129
272	4.689655172413793	0.32234162609009054	0.5371119017244242	0.9773709731198732	0.32129444397640444	0.6459283453788638	1.3239111451818952	0.34550507652407025	0.8150497651798705	1.7437348161501218	0.3192147482766464	0.6509685207028179	1.817800814446822	0.3925680649735015	0.6676175662587397	1.807252412973948	0.3232780876813333	0.9209981329167236	1.8117926231283252	0.1424849746939071	0.5895983744424669	0.9520391839068825	0.13594460021352914	0.7023970632853729	1.3273939733319988	0.1251577393569673	0.8251029612026777	1.7097639178052089	0.11224941653734419	0.6881859424172698	1.8126763764288716	0.06297866169189224	0.7079580701586128	1.7953752743369986	0.13548280088479972	0.8881955556516063	1.7614136539651812	0.29583816326618967	0.4280117663340023	0.44875739435740414	0.3835099609755001	0.3551352411649302	0.2467175578373938	0.3232081419768537	0.3008473108176183	0.3554875857007378	0.4304240986047037	0.46843565718203567	0.5449907719825269	0.4101830149866175	0.48502477556747625	0.8166489781182298	0.3642026882310493	0.4342353381440142	1.0700133517756938	0.30005744282632574	0.43799975043129735	1.1783388361904727	0.3243446887473419	0.4504158284784517	1.2076272792005684	0.35685809597500195	0.4616444991674513	1.1902818691048334	0.14678079286439116	0.49368244818626444	0.4828014826617315	0.03627552932720669	0.5255122174250563	0.7358237406531042	0.15191239898646294	0.3945119730121618	0.63765617024948	0.23017940916197616	0.37808149568462873	0.5728783307455965	0.24526653332627418	0.3711036692818671	0.5797077958944521	0.2441062314589888	0.3703552392730511	0.6367556753601165
273	4.706896551724138	0.32244592953041407	0.5374613489443683	0.977512209839748	0.3211516620099331	0.6456210742464156	1.3238673876608673	0.3455021478192599	0.8151562604215533	1.7437884547545843	0.3193319832336784	0.6504264886304512	1.818743968385261	0.3916177041391559	0.6721865348430096	1.808267684177308	0.3233085146389507	0.9207662841715408	1.811776854612422	0.1425398579742918	0.5893543013227674	0.9521355000051219	0.13604084838211875	0.7020400059850047	1.3273874647710033	0.12522058779679698	0.8248806997060663	1.7110703364065822	0.11070539977601461	0.6882884083499416	1.813012058942715	0.061421965117559325	0.7117749264288118	1.796372244295732	0.13548301947516064	0.8872286868558161	1.7624790697894768	0.2971670533925617	0.4320816085575323	0.44875508552608195	0.38681059399152506	0.3539397556261718	0.24874138780486424	0.3252664167298109	0.3013172977703941	0.3554059466856268	0.43212770050057625	0.4730787577913578	0.5455363556965412	0.410275925957091	0.48557046147778954	0.8175554464932723	0.3642827327254021	0.434054922403584	1.0709429422593166	0.30178295571222175	0.44168691351227957	1.1815035080975849	0.3243857457842061	0.4502084762267225	1.2082845862954497	0.3568232872159555	0.4614918579568573	1.1909888033005072	0.14777899267338418	0.49380668380808906	0.48285304246497374	0.03625191067682754	0.5255107856792459	0.7357876247684699	0.15199863180467388	0.39423177553651145	0.6372748632137191	0.2302378368252267	0.3807259551226185	0.5727688369855883	0.2456203268536779	0.37258028369542506	0.5804399755154466	0.244712732611149	0.37047699946774687	0.6367596898757557
274	4.724137931034483	0.32253584773970223	0.5375534620445747	0.9776021868240037	0.3204045887738512	0.6436823533560964	1.3234010046653766	0.3457568520507563	0.8147756127125807	1.743804528648089	0.31891445733760054	0.6476748911944105	1.8179194501181124	0.39101848864415883	0.6735530734623631	1.8082624134134955	0.32401764354154605	0.9220598926996886	1.8112374036267198	0.1425099160414393	0.5894070905164174	0.9522015412191132	0.135844793572522	0.7018997775637927	1.3273838038524157	0.12568458460977583	0.8243506357246431	1.709894957110254	0.11075448900012311	0.6890621594611642	1.8132433628681288	0.06053059742331717	0.7132038238995198	1.7957043208695473	0.13528468633868673	0.8862815371609198	1.761263591771127	0.2986154033209843	0.43535379283341635	0.4490849285224117	0.38953820013238166	0.3537827695319516	0.2507706006746545	0.3269641579018724	0.30157656621735907	0.35541103584529543	0.4334887182246933	0.47706742144883474	0.5469849439596598	0.4104545226389807	0.4859686080623905	0.8178941848763579	0.3643322199866558	0.43387934956298757	1.0712887408922485	0.3031306598932992	0.44591028973621355	1.1834974866120986	0.32485485384459445	0.4512353497987688	1.2090871355617223	0.35681692961937117	0.4614785330708389	1.1912817657138275	0.14878380597564922	0.4924755736765339	0.4830039369393596	0.036210267833472955	0.5256140481255872	0.7349913043225885	0.1519523260024332	0.39352470497437086	0.6367394698383659	0.22833899836828744	0.380865287655706	0.5727084655512366	0.24548456692770595	0.3725626951230785	0.580708086523346	0.24596756508361872	0.3706744450260329	0.6367741126301045
275	4.741379310344827	0.3226330489062473	0.5373480643889317	0.9776395141920206	0.31886188457081555	0.6397435948773464	1.3223242691665902	0.34611797051862675	0.8143634657269138	1.7437697303009219	0.3174779555818525	0.64178400051833	1.8133735130395217	0.39080624596396685	0.6726016523572786	1.8075653998368255	0.3256577193423027	0.9258963546488804	1.8097679654907426	0.14206774194494762	0.5908716683650799	0.9523673094712474	0.13494163483579497	0.7030051872975636	1.3276637970056029	0.1264235048193898	0.8236656761788712	1.7061926426275889	0.11232572811902712	0.690804755578353	1.8129201343097663	0.0605177904687578	0.713141200443766	1.794199349550035	0.1344624563240226	0.8855628659780987	1.7583875463047565	0.3002034760041934	0.43682485921542213	0.4493252449312708	0.39125063291503354	0.3539071597081656	0.25203931710884214	0.3279876722064425	0.3016523083383939	0.3554582292194703	0.43413605087153273	0.47916928543477266	0.5488718803053958	0.410677784019571	0.4860732375031578	0.8182788574117751	0.3643683302421057	0.4336795199825785	1.0712502129098749	0.3037967818670482	0.4487087068244573	1.1837628679628502	0.32601891018693635	0.45428326202830666	1.2102328280525225	0.3568681969980221	0.4615801235270577	1.191343974810584	0.14999526168980698	0.4888935807630148	0.48316068833917714	0.03617853787374122	0.5257952646694631	0.7329646622564414	0.15194198279571952	0.393044663701454	0.6368377165151652	0.22615060580833346	0.38024294899710687	0.5729544412600105	0.24576168236289533	0.37225909637859106	0.5806863672188014	0.24740713325462568	0.3708579829031375	0.6367915012970922
